<svg width="589" height="705" viewBox="0 0 589 705" fill="none" xmlns="http://www.w3.org/2000/svg">
<mask id="mask0_290_3947" style="mask-type:alpha" maskUnits="userSpaceOnUse" x="0" y="304" width="587" height="401">
<rect y="304" width="587" height="401" fill="#D9D9D9"/>
</mask>
<g mask="url(#mask0_290_3947)">
<path d="M288.612 414.106C159.647 414.106 134.245 466.067 85.3948 618.052C64.3667 680.405 54.1324 770.037 144.017 770.037C187.006 770.037 214.365 727.169 226.087 699.89C230.563 727.169 248.75 772.115 308.152 770.037C367.554 767.958 377.194 718.076 374.589 693.395C398.037 781.728 548.496 812.904 532.864 677.807C517.232 542.709 417.577 414.106 288.612 414.106Z" fill="white"/>
<path d="M214.995 352.984C240.798 341.696 331.681 327.727 373.31 357.236C394.458 338.546 420.188 301.712 446.366 314.834C466.27 324.81 439.343 399.069 392.243 431.002C386.963 482.74 361.671 571.04 297.471 566.644C233.272 562.248 213.665 482.243 206.039 425.451C155.148 404.275 116.076 331.261 133.804 309.293C151.532 287.324 194.215 336.382 214.995 352.984Z" fill="black"/>
<circle cx="262.338" cy="448.439" r="32.6876" fill="white"/>
<circle cx="334.718" cy="448.439" r="32.6876" fill="white"/>
<circle cx="334.511" cy="431.511" r="17.5112" fill="black"/>
<circle cx="261.511" cy="431.511" r="17.5112" fill="black"/>
<circle cx="298.837" cy="486.837" r="5.83707" fill="white"/>
<circle cx="297.5" cy="526.5" r="25.5" fill="white"/>
</g>
</svg>
