<svg width="202" height="96" viewBox="0 0 202 96" fill="none" xmlns="http://www.w3.org/2000/svg">
<circle cx="47.9662" cy="47.9662" r="47.9662" transform="matrix(-1 0 0 1 201.996 0)" fill="white"/>
<circle cx="47.9662" cy="47.9662" r="47.9662" transform="matrix(-1 0 0 1 95.9326 0)" fill="white"/>
<circle cx="25.6962" cy="25.6962" r="25.6962" transform="matrix(-1 0 0 1 72.8008 22.5576)" fill="black"/>
<circle cx="25.6962" cy="25.6962" r="25.6962" transform="matrix(-1 0 0 1 179.438 22.5576)" fill="black"/>
<path d="M106.063 48.221C105.64 48.221 129.478 62.0721 154.029 62.0725C177.641 62.0728 201.996 48.2225 201.996 48.2225L201.995 48.221C201.995 21.7301 180.52 0.254883 154.029 0.254883C127.538 0.254883 106.063 21.7301 106.063 48.221Z" fill="white"/>
</svg>
