<svg width="51" height="41" viewBox="0 0 51 41" fill="none" xmlns="http://www.w3.org/2000/svg">
<path d="M13.7754 7.78834C17.7633 6.04396 31.8089 3.88499 38.2424 8.44548C41.5108 5.55709 45.4873 -0.13548 49.533 1.89241C52.609 3.43426 48.4476 14.9106 41.1685 19.8457C40.3525 27.8416 36.4437 41.4881 26.5219 40.8087C16.6 40.1294 13.5699 27.7649 12.3913 18.9878C4.52639 15.7152 -1.51212 4.43118 1.2277 1.0361C3.96756 -2.35902 10.5639 5.22259 13.7754 7.78834Z" fill="black"/>
<circle cx="21.0923" cy="22.5405" r="5.05174" fill="white"/>
<circle cx="32.2783" cy="22.5405" r="5.05174" fill="white"/>
<circle cx="29.9036" cy="22.51" r="2.70629" fill="black"/>
<circle cx="18.718" cy="22.51" r="2.70629" fill="black"/>
<circle cx="26.3249" cy="30.6594" r="0.902097" fill="white"/>
<circle cx="26.3245" cy="34.2678" r="1.26294" fill="white"/>
</svg>
