<svg width="292" height="274" viewBox="0 0 292 274" fill="none" xmlns="http://www.w3.org/2000/svg">
<path d="M96.35 64.9757C40.6272 97.1473 42.6441 125.988 59.5403 203.998C66.0457 236.248 84.0359 277.62 122.873 255.198C141.448 244.474 142.55 219.083 140.793 204.345C149.549 215.042 168.646 229.971 193.792 214.253C218.939 198.534 210.631 174.526 203.334 164.486C235.553 196.893 308.358 172.862 267.823 118.252C227.288 63.6413 152.073 32.8041 96.35 64.9757Z" fill="#8B85FF"/>
<path d="M74.8472 101.191C83.1802 89.8764 118.963 61.1676 144.313 63.5355C148.787 50.1831 150.714 27.8462 165.299 26.9865C176.388 26.3328 183.282 65.1412 170.898 90.6908C181.526 114.367 192.629 158.836 163.793 172.952C134.957 187.067 106.524 157.384 89.0586 134.743C61.7865 138.286 26.6867 116.48 28.8655 102.564C31.0442 88.6473 61.7264 99.2003 74.8472 101.191Z" fill="black"/>
<ellipse cx="16.3085" cy="16.3116" rx="16.3085" ry="16.3116" transform="matrix(0.891258 -0.453497 0.453515 0.891249 97.3276 122.328)" fill="white"/>
<ellipse cx="16.3085" cy="16.3116" rx="16.3085" ry="16.3116" transform="matrix(0.891258 -0.453497 0.453515 0.891249 129.513 105.951)" fill="white"/>
<ellipse cx="8.7367" cy="8.73833" rx="8.7367" ry="8.73833" transform="matrix(0.891258 -0.453497 0.453515 0.891249 147.237 112.051)" fill="black"/>
<ellipse cx="8.7367" cy="8.73833" rx="8.7367" ry="8.73833" transform="matrix(0.891258 -0.453497 0.453515 0.891249 115.053 128.427)" fill="black"/>
<ellipse cx="2.91223" cy="2.91278" rx="2.91223" ry="2.91278" transform="matrix(0.891258 -0.453497 0.453515 0.891249 142.287 143.897)" fill="white"/>
<ellipse cx="4.07713" cy="4.07789" rx="4.07713" ry="4.07789" transform="matrix(0.891258 -0.453497 0.453515 0.891249 146.004 153.772)" fill="white"/>
</svg>
