<svg width="184" height="170" viewBox="0 0 184 170" fill="none" xmlns="http://www.w3.org/2000/svg">
<rect x="92.9619" y="111.613" width="18.8766" height="58.0559" fill="black"/>
<rect x="65.0576" y="111.613" width="18.8766" height="58.0559" fill="black"/>
<rect x="139.743" y="96.4199" width="18.4663" height="58.0559" fill="black"/>
<rect x="18.687" y="96.4199" width="18.8766" height="58.0559" fill="black"/>
<path d="M86.1212 0.669434C35.1481 0.669434 25.1079 21.1031 5.79987 80.8717C-2.51144 105.392 -6.55654 140.64 28.9702 140.64C45.9616 140.64 56.7752 123.782 61.408 113.055C63.1774 123.782 70.3659 141.458 93.8444 140.64C117.323 139.823 121.133 120.206 120.103 110.5C129.371 145.238 188.84 157.498 182.661 104.37C176.483 51.2428 137.094 0.669434 86.1212 0.669434Z" fill="#53D3B4"/>
<path d="M57.0241 28.6306C67.2231 24.1858 103.144 18.6847 119.598 30.305C127.957 22.9453 138.126 8.44052 148.473 13.6076C156.34 17.5363 145.698 46.7782 127.081 59.353C124.994 79.7267 114.998 114.498 89.623 112.767C64.2481 111.036 56.4986 79.5313 53.4844 57.1671C33.37 48.8282 17.9267 20.0764 24.9337 11.4257C31.9408 2.77489 48.8109 22.093 57.0241 28.6306Z" fill="black"/>
<ellipse cx="75.7366" cy="66.2201" rx="12.9197" ry="12.8719" fill="white"/>
<ellipse cx="104.345" cy="66.2201" rx="12.9197" ry="12.8719" fill="white"/>
<ellipse cx="108.669" cy="70.8766" rx="6.92128" ry="6.89568" fill="black"/>
<ellipse cx="80.0619" cy="70.8766" rx="6.92128" ry="6.89568" fill="black"/>
<ellipse cx="89.1186" cy="86.906" rx="2.30709" ry="2.29856" fill="white"/>
<ellipse cx="89.1176" cy="96.1008" rx="3.22993" ry="3.21798" fill="white"/>
</svg>
