<svg width="471" height="204" viewBox="0 0 471 204" fill="none" xmlns="http://www.w3.org/2000/svg">
<g filter="url(#filter0_f_288_3914)">
<ellipse cx="215.135" cy="82.0261" rx="215.135" ry="82.0261" transform="matrix(1 0 -0.0252216 0.999682 22.1377 20)" fill="#8B85FF"/>
</g>
<ellipse cx="215.135" cy="69.4483" rx="215.135" ry="69.4483" transform="matrix(1 0 -0.0252216 0.999682 22 24)" fill="white"/>
<path d="M111.94 106L116.116 79.72H120.004L118.24 90.592H125.98L127.708 79.72H131.596L127.42 106H123.532L125.404 94.192H117.7L115.828 106H111.94ZM139.43 106.36C137.462 106.36 135.986 105.688 135.002 104.344C134.042 103 133.754 101.188 134.138 98.908L135.002 93.328C135.242 91.768 135.722 90.436 136.442 89.332C137.162 88.228 138.05 87.376 139.106 86.776C140.186 86.152 141.386 85.84 142.706 85.84C144.338 85.84 145.562 86.296 146.378 87.208C147.218 88.096 147.506 89.32 147.242 90.88L146.558 89.98H147.422L147.962 86.2H151.814L148.682 106H144.866L145.478 102.22H144.65L145.622 101.32C145.358 102.88 144.662 104.116 143.534 105.028C142.43 105.916 141.062 106.36 139.43 106.36ZM141.338 102.976C142.562 102.976 143.582 102.604 144.398 101.86C145.238 101.092 145.766 100.036 145.982 98.692L146.774 93.508C147.014 92.164 146.834 91.12 146.234 90.376C145.658 89.608 144.746 89.224 143.498 89.224C142.226 89.224 141.194 89.596 140.402 90.34C139.61 91.06 139.094 92.116 138.854 93.508L138.062 98.692C137.822 100.084 137.99 101.152 138.566 101.896C139.142 102.616 140.066 102.976 141.338 102.976ZM165.768 106L166.884 99.052C166.5 99.148 165.936 99.244 165.192 99.34C164.448 99.412 163.656 99.448 162.816 99.448C160.32 99.472 158.472 98.86 157.272 97.612C156.072 96.364 155.64 94.636 155.976 92.428L156.984 86.2H160.872L159.9 92.32C159.708 93.448 159.948 94.336 160.62 94.984C161.316 95.632 162.336 95.956 163.68 95.956C164.592 95.956 165.372 95.92 166.02 95.848C166.692 95.752 167.16 95.668 167.424 95.596L168.9 86.2H172.788L169.656 106H165.768ZM181.882 106.36C179.914 106.36 178.438 105.688 177.454 104.344C176.494 103 176.206 101.188 176.59 98.908L177.454 93.328C177.694 91.768 178.174 90.436 178.894 89.332C179.614 88.228 180.502 87.376 181.558 86.776C182.638 86.152 183.838 85.84 185.158 85.84C186.79 85.84 188.014 86.296 188.83 87.208C189.67 88.096 189.958 89.32 189.694 90.88L189.01 89.98H189.874L190.414 86.2H194.266L191.134 106H187.318L187.93 102.22H187.102L188.074 101.32C187.81 102.88 187.114 104.116 185.986 105.028C184.882 105.916 183.514 106.36 181.882 106.36ZM183.79 102.976C185.014 102.976 186.034 102.604 186.85 101.86C187.69 101.092 188.218 100.036 188.434 98.692L189.226 93.508C189.466 92.164 189.286 91.12 188.686 90.376C188.11 89.608 187.198 89.224 185.95 89.224C184.678 89.224 183.646 89.596 182.854 90.34C182.062 91.06 181.546 92.116 181.306 93.508L180.514 98.692C180.274 100.084 180.442 101.152 181.018 101.896C181.594 102.616 182.518 102.976 183.79 102.976ZM202.64 106L205.232 89.692H198.248L198.788 86.2H216.644L216.104 89.692H209.12L206.528 106H202.64ZM218.25 106L221.382 86.2H225.27L224.154 93.076H229.626C231.954 93.076 233.682 93.652 234.81 94.804C235.962 95.956 236.382 97.54 236.07 99.556C235.758 101.524 234.834 103.096 233.298 104.272C231.786 105.424 229.89 106 227.61 106H218.25ZM222.678 102.544H228.042C229.194 102.544 230.118 102.292 230.814 101.788C231.51 101.26 231.942 100.504 232.11 99.52C232.254 98.56 232.05 97.828 231.498 97.324C230.97 96.796 230.13 96.532 228.978 96.532H223.614L222.678 102.544ZM266.858 106.36C264.914 106.36 263.45 105.736 262.466 104.488C261.506 103.216 261.182 101.512 261.494 99.376L263.582 86.2H267.47L265.454 98.944C265.262 100.24 265.454 101.248 266.03 101.968C266.606 102.688 267.494 103.048 268.694 103.048C269.918 103.048 270.938 102.676 271.754 101.932C272.594 101.164 273.122 100.084 273.338 98.692L275.318 86.2H279.206L276.074 106H272.222L272.834 102.22H271.898L272.978 101.32C272.738 102.904 272.066 104.14 270.962 105.028C269.882 105.916 268.514 106.36 266.858 106.36ZM290.244 106.36H288.732C286.284 106.36 284.52 105.832 283.44 104.776C282.384 103.696 281.988 102.208 282.252 100.312C282.54 98.56 283.284 97.228 284.484 96.316C285.684 95.404 287.424 94.78 289.704 94.444L292.368 94.048C293.352 93.904 294.096 93.652 294.6 93.292C295.104 92.908 295.428 92.356 295.572 91.636C295.692 90.82 295.524 90.196 295.068 89.764C294.636 89.332 293.844 89.116 292.692 89.116H291.324C290.436 89.116 289.692 89.308 289.092 89.692C288.492 90.052 288.084 90.52 287.868 91.096H283.98C284.268 90.04 284.772 89.116 285.492 88.324C286.212 87.532 287.112 86.92 288.192 86.488C289.296 86.056 290.52 85.84 291.864 85.84H293.232C295.584 85.84 297.264 86.344 298.272 87.352C299.304 88.36 299.676 89.776 299.388 91.6C299.124 93.328 298.416 94.636 297.264 95.524C296.112 96.388 294.468 96.976 292.332 97.288L289.704 97.648C288.648 97.816 287.808 98.128 287.184 98.584C286.584 99.04 286.224 99.652 286.104 100.42C285.984 101.212 286.176 101.86 286.68 102.364C287.184 102.844 288.024 103.084 289.2 103.084H290.748C291.732 103.084 292.56 102.88 293.232 102.472C293.928 102.064 294.372 101.536 294.564 100.888H298.452C298.188 101.992 297.684 102.952 296.94 103.768C296.196 104.584 295.26 105.22 294.132 105.676C293.004 106.132 291.708 106.36 290.244 106.36ZM301.894 112.48L306.07 86.2H309.922L309.31 89.98H310.138L309.166 90.88C309.406 89.32 310.09 88.096 311.218 87.208C312.346 86.296 313.726 85.84 315.358 85.84C317.35 85.84 318.814 86.512 319.75 87.856C320.71 89.176 321.01 90.988 320.65 93.292L319.786 98.872C319.546 100.408 319.066 101.74 318.346 102.868C317.65 103.972 316.762 104.836 315.682 105.46C314.626 106.06 313.426 106.36 312.082 106.36C310.474 106.36 309.25 105.916 308.41 105.028C307.57 104.116 307.27 102.88 307.51 101.32L308.23 102.22H307.33L306.718 106.828L305.782 112.48H301.894ZM311.29 102.976C312.562 102.976 313.594 102.616 314.386 101.896C315.202 101.152 315.718 100.084 315.934 98.692L316.726 93.508C316.966 92.116 316.798 91.06 316.222 90.34C315.646 89.596 314.734 89.224 313.486 89.224C312.262 89.224 311.23 89.608 310.39 90.376C309.574 91.12 309.046 92.164 308.806 93.508L307.978 98.692C307.762 100.036 307.954 101.092 308.554 101.86C309.178 102.604 310.09 102.976 311.29 102.976ZM325.712 112.48L326.252 109.132H332.336C333.344 109.132 334.136 108.892 334.712 108.412C335.288 107.932 335.648 107.224 335.792 106.288L336.116 104.164L336.764 100.42H335.792L336.872 99.52C336.632 101.104 335.96 102.34 334.856 103.228C333.776 104.116 332.408 104.56 330.752 104.56C328.808 104.56 327.344 103.936 326.36 102.688C325.376 101.416 325.052 99.712 325.388 97.576L327.224 86.2H331.076L329.348 97.144C329.132 98.44 329.312 99.448 329.888 100.168C330.488 100.888 331.388 101.248 332.588 101.248C333.812 101.248 334.832 100.876 335.648 100.132C336.488 99.364 337.016 98.284 337.232 96.892L338.924 86.2H342.812L339.608 106.36C339.344 108.256 338.504 109.744 337.088 110.824C335.696 111.928 333.944 112.48 331.832 112.48H325.712ZM353.022 97.936L354.426 84.364L355.146 79.72H359.538L358.782 84.364L355.866 97.936H353.022ZM352.59 106.18C351.918 106.18 351.402 105.976 351.042 105.568C350.682 105.136 350.55 104.584 350.646 103.912C350.742 103.24 351.042 102.7 351.546 102.292C352.05 101.86 352.638 101.644 353.31 101.644H354.39C355.11 101.644 355.638 101.86 355.974 102.292C356.334 102.7 356.466 103.228 356.37 103.876C356.25 104.548 355.938 105.1 355.434 105.532C354.93 105.964 354.342 106.18 353.67 106.18H352.59Z" fill="#8B85FF"/>
<defs>
<filter id="filter0_f_288_3914" x="0.0585938" y="0" width="470.29" height="204" filterUnits="userSpaceOnUse" color-interpolation-filters="sRGB">
<feFlood flood-opacity="0" result="BackgroundImageFix"/>
<feBlend mode="normal" in="SourceGraphic" in2="BackgroundImageFix" result="shape"/>
<feGaussianBlur stdDeviation="10" result="effect1_foregroundBlur_288_3914"/>
</filter>
</defs>
</svg>
