<svg width="184" height="170" viewBox="0 0 184 170" fill="none" xmlns="http://www.w3.org/2000/svg">
<rect x="93.0771" y="111.245" width="18.8766" height="58.1413" fill="black"/>
<rect x="65.1733" y="111.245" width="18.8766" height="58.1413" fill="black"/>
<rect x="139.858" y="96.0295" width="18.4663" height="58.1413" fill="black"/>
<rect x="18.8022" y="96.0298" width="18.8766" height="58.1413" fill="black"/>
<path d="M86.2365 0.138428C35.2633 0.138428 25.2231 20.6022 5.9151 80.4586C-2.39621 105.015 -6.44131 140.315 29.0855 140.315C46.0769 140.315 56.8904 123.432 61.5233 112.689C63.2926 123.432 70.4811 141.134 93.9597 140.315C117.438 139.496 121.248 119.851 120.219 110.131C129.486 144.919 188.955 157.198 182.777 103.992C176.598 50.7862 137.21 0.138428 86.2365 0.138428Z" fill="#F7ADF8"/>
<path d="M57.1394 28.1408C67.3383 23.6895 103.26 18.1803 119.713 29.8176C128.072 22.4472 138.242 7.92105 148.588 13.0957C156.455 17.0302 145.813 46.3152 127.197 58.9084C125.11 79.3121 115.113 114.135 89.7382 112.401C64.3633 110.668 56.6139 79.1164 53.5996 56.7193C33.4853 48.3682 18.0419 19.5741 25.049 10.9106C32.0561 2.24708 48.9262 21.5936 57.1394 28.1408Z" fill="black"/>
<ellipse cx="75.8518" cy="65.7854" rx="12.9197" ry="12.8909" fill="white"/>
<ellipse cx="104.46" cy="65.7854" rx="12.9197" ry="12.8909" fill="white"/>
<ellipse cx="108.784" cy="70.4493" rx="6.92128" ry="6.90582" fill="black"/>
<ellipse cx="80.1771" cy="70.4493" rx="6.92128" ry="6.90582" fill="black"/>
<ellipse cx="89.2338" cy="86.5019" rx="2.30709" ry="2.30194" fill="white"/>
<ellipse cx="89.2329" cy="95.71" rx="3.22993" ry="3.22272" fill="white"/>
</svg>
