<svg width="587" height="310" viewBox="0 0 587 310" fill="none" xmlns="http://www.w3.org/2000/svg">
<rect width="587" height="310" fill="#B9C1FF"/>
<path d="M314.747 93.9033C292.252 88.5908 286.924 92.1324 284.556 105.119C284.556 126.368 295.804 122.827 318.299 113.973C340.795 105.119 352.043 127.549 352.635 149.98C353.227 172.411 287.516 161.786 284.556 171.82C281.595 181.855 291.66 193.07 328.955 181.855C366.25 170.64 373.354 204.876 374.538 255.64C375.722 306.404 266.204 286.925 244.893 283.383C223.581 279.841 230.093 238.522 231.869 198.973C233.645 159.425 227.133 44.9105 259.1 36.056C299.355 24.2504 328.363 41.3685 334.283 57.8963C340.203 74.4241 337.243 99.2158 314.747 93.9033Z" fill="white"/>
<path d="M437.987 165.982C438.441 182.002 373.509 184.375 365.853 173.695C358.198 163.016 357.464 144.623 363.302 135.13C369.14 125.637 379.898 128.604 407.947 126.014C433.898 123.618 437.349 143.437 437.987 165.982Z" fill="white"/>
<path d="M461.776 30.4166C439.819 34.733 441.247 77.822 441.212 107.122C441.178 136.422 444.129 206.123 450.917 250.694C459.401 306.409 542.537 278.858 563.884 271.623C585.232 264.388 577.96 195.49 570.554 178.908C563.148 162.326 542.478 177.227 516.534 179.519C490.591 181.81 490.988 152.652 523.019 158.738C555.05 164.824 554.563 145.847 554.942 123.228C555.322 100.609 539.159 103.225 514.967 111.9C495.614 118.84 491.145 102.315 491.329 93.1854C493.392 82.899 501.611 84.5269 522.719 88.0353C548.404 92.3046 562.813 68.2727 552.961 44.1797C543.109 20.0868 497.014 23.489 461.776 30.4166Z" fill="white"/>
<path d="M11.766 206.765C13.5457 258.818 6.54183 292.721 59.8162 289.231C117.472 289.231 64.5618 185.125 59.8162 169.919C55.0705 154.712 48.5451 96.811 59.8162 99.1504C71.0872 101.49 67.5279 137.751 74.6464 169.919C81.765 202.086 109.646 217.877 136.34 190.389C163.035 162.9 139.306 131.903 154.73 123.715C170.153 115.527 154.73 178.107 154.73 234.253C154.73 290.4 167.895 291.941 196.963 289.231C252.725 284.031 207.047 90.3592 204.081 66.3799C201.115 42.4006 185.098 30.7031 154.73 33.6463C115.766 37.4226 140.288 159.836 109.761 148.261C86.6254 139.488 83.6593 80.4166 78.9136 57.607C74.1679 34.7974 61.7088 28.9477 30.1556 33.6463C0.774906 38.0214 9.9864 154.713 11.766 206.765Z" fill="white"/>
</svg>
