<svg width="281" height="199" viewBox="0 0 281 199" fill="none" xmlns="http://www.w3.org/2000/svg">
<path d="M8.00244 65.6448C12.2815 71.051 34.967 76.4369 41.5024 68.1433C64.5945 26.312 96.1588 49.7609 73.5024 81.1344C58.8723 101.394 10.6628 116.737 2.38455 160.747C-2.40814 202.579 38.6486 195.556 67.0024 195.556C92.5024 195.556 137.002 203.177 137.002 183.406C137.002 163.635 132.11 141.24 122 141.593C79 143.092 67 155.583 65 144.091C63 132.599 81.9104 134.452 105.218 104.119C128.525 73.7851 132.677 41.2493 105.218 15.2094C83.2505 -5.62257 52.17 3.34491 39.0024 7.68489C15.3973 17.3293 -1.14723 54.0848 8.00244 65.6448Z" fill="white" stroke="white" stroke-width="4"/>
<path d="M150.005 65.6448C154.284 71.051 176.969 76.4369 183.505 68.1433C206.597 26.312 238.161 49.7609 215.505 81.1344C200.875 101.394 152.665 116.737 144.387 160.747C139.594 202.579 180.651 195.556 209.005 195.556C234.505 195.556 279.005 203.177 279.005 183.406C279.005 163.635 274.113 141.24 264.002 141.593C221.002 143.092 209.002 155.583 207.002 144.091C205.002 132.599 223.913 134.452 247.22 104.119C270.528 73.7851 274.679 41.2493 247.22 15.2094C225.253 -5.62257 194.172 3.34491 181.005 7.68489C157.4 17.3293 140.855 54.0848 150.005 65.6448Z" fill="white" stroke="white" stroke-width="4"/>
</svg>
