<svg width="212" height="173" viewBox="0 0 212 173" fill="none" xmlns="http://www.w3.org/2000/svg">
<rect x="145.233" y="115.24" width="18.5929" height="57.2627" fill="black"/>
<rect x="75.8345" y="115.24" width="18.5929" height="57.2627" fill="black"/>
<rect x="169.639" y="115.737" width="18.1887" height="57.2627" fill="black"/>
<rect x="50.4023" y="115.737" width="18.5929" height="57.2627" fill="black"/>
<path d="M115.568 5.13477C65.3961 5.13477 55.5138 25.3963 36.5093 84.6612C28.3286 108.975 24.3471 143.926 59.3154 143.926C76.0397 143.926 86.6833 127.21 91.2433 116.573C92.9848 127.21 100.06 144.737 123.17 143.926C146.279 143.116 150.03 123.665 149.016 114.04C158.138 148.485 216.672 160.642 210.591 107.962C204.509 55.282 165.74 5.13477 115.568 5.13477Z" fill="#F25CC0"/>
<path d="M33.6254 19.8661C43.671 15.4821 79.0522 10.0561 95.2585 21.5176C103.492 14.2585 113.509 -0.0481348 123.7 5.04837C131.448 8.92336 120.966 37.7658 102.63 50.1688C100.574 70.2642 90.7276 104.561 65.7342 102.853C40.7407 101.146 33.1077 70.0714 30.1388 48.0127C10.3268 39.7878 -4.88437 11.4288 2.01731 2.8963C8.9191 -5.63637 25.5356 13.4178 33.6254 19.8661Z" fill="black"/>
<ellipse cx="52.1176" cy="57.5569" rx="12.7255" ry="12.6961" fill="white"/>
<ellipse cx="80.2162" cy="57.5569" rx="12.7255" ry="12.6961" fill="white"/>
<ellipse cx="86.5199" cy="57.114" rx="6.81724" ry="6.80147" fill="black"/>
<ellipse cx="58.4217" cy="57.114" rx="6.81724" ry="6.80147" fill="black"/>
<ellipse cx="65.2548" cy="77.3575" rx="2.27241" ry="2.26716" fill="white"/>
<ellipse cx="65.2541" cy="86.424" rx="3.18138" ry="3.17402" fill="white"/>
</svg>
