<svg width="210" height="190" viewBox="0 0 210 190" fill="none" xmlns="http://www.w3.org/2000/svg">
<rect x="114.394" y="132.076" width="18.6042" height="57.4252" fill="black"/>
<rect x="44.9536" y="132.076" width="18.6042" height="57.4252" fill="black"/>
<rect x="138.814" y="132.575" width="18.1997" height="57.4252" fill="black"/>
<rect x="19.5059" y="132.575" width="18.6042" height="57.4252" fill="black"/>
<path d="M84.7101 21.6582C34.5078 21.6582 24.6195 41.9772 5.60347 101.41C-2.58214 125.793 -6.56607 160.843 28.4234 160.843C45.1578 160.843 55.8079 144.08 60.3707 133.413C62.1132 144.08 69.193 161.656 92.3165 160.843C115.44 160.031 119.192 140.524 118.178 130.873C127.306 165.415 185.875 177.606 179.79 124.777C173.705 71.9477 134.912 21.6582 84.7101 21.6582Z" fill="#B9C1FF"/>
<path d="M116.978 20.0304C127.03 15.634 162.432 10.1927 178.649 21.6867C186.887 14.407 196.91 0.0597463 207.107 5.17071C214.86 9.0567 204.371 37.981 186.024 50.4191C183.967 70.5716 174.115 104.965 149.106 103.253C124.098 101.541 116.46 70.3782 113.489 48.257C93.6654 40.0087 78.445 11.5693 85.3509 3.01253C92.2568 -5.54433 108.883 13.5639 116.978 20.0304Z" fill="black"/>
<ellipse cx="135.482" cy="57.8278" rx="12.7332" ry="12.7321" fill="white"/>
<ellipse cx="163.598" cy="57.8278" rx="12.7332" ry="12.7321" fill="white"/>
<ellipse cx="164.28" cy="58.4768" rx="6.82136" ry="6.82077" fill="black"/>
<ellipse cx="135.85" cy="58.4768" rx="6.82136" ry="6.82077" fill="black"/>
<ellipse cx="148.627" cy="77.6845" rx="2.27379" ry="2.27359" fill="white"/>
<ellipse cx="148.626" cy="86.777" rx="3.1833" ry="3.18302" fill="white"/>
</svg>
