<svg width="180" height="180" viewBox="0 0 180 180" fill="none" xmlns="http://www.w3.org/2000/svg">
<mask id="mask0_250_123" style="mask-type:alpha" maskUnits="userSpaceOnUse" x="0" y="0" width="180" height="180">
<rect x="180" y="180" width="180" height="180" transform="rotate(-180 180 180)" fill="#D9D9D9"/>
</mask>
<g mask="url(#mask0_250_123)">
<path d="M190.207 179C288.462 179 307.815 126.847 345.033 -25.7005C361.054 -88.284 368.851 -178.248 300.37 -178.248C267.618 -178.248 246.774 -135.222 237.844 -107.841C234.434 -135.222 220.577 -180.334 175.32 -178.248C130.064 -176.162 122.719 -126.095 124.704 -101.322C106.84 -189.982 -7.79068 -221.274 4.11898 -85.6764C16.0286 49.9213 91.9527 179 190.207 179Z" fill="white"/>
<path d="M246.247 142.94C226.831 152.076 157.908 164.616 125.588 143.013C109.872 157.689 91.0472 186.28 70.836 176.834C55.469 169.652 74.4224 112.535 109.625 87.2303C112.564 47.7169 129.979 -20.06 178.965 -18.0552C227.95 -16.0503 244.556 44.4701 251.552 87.5631C290.752 102.626 322.036 157.415 308.994 174.516C295.952 191.618 262.42 155.149 246.247 142.94Z" fill="black"/>
<circle cx="151.953" cy="72.0962" r="24.9037" transform="rotate(-180 151.953 72.0962)" fill="white"/>
<circle cx="150.611" cy="70.7539" r="13.3413" transform="rotate(-180 150.611 70.7539)" fill="black"/>
<circle cx="180.553" cy="32.0734" r="4.4471" transform="rotate(-180 180.553 32.0734)" fill="white"/>
<circle cx="180.774" cy="14.2848" r="6.22594" transform="rotate(-180 180.774 14.2848)" fill="white"/>
</g>
</svg>
