<svg width="180" height="180" viewBox="0 0 180 180" fill="none" xmlns="http://www.w3.org/2000/svg">
<mask id="mask0_250_95" style="mask-type:alpha" maskUnits="userSpaceOnUse" x="0" y="0" width="180" height="180">
<rect y="180" width="180" height="180" transform="rotate(-90 0 180)" fill="#D9D9D9"/>
</mask>
<g mask="url(#mask0_250_95)">
<path d="M-179 10.2074C-179 108.462 -126.847 127.815 25.7005 165.033C88.284 181.054 178.248 188.851 178.248 120.37C178.248 87.6181 135.222 66.7741 107.841 57.844C135.222 54.4335 180.334 40.577 178.248 -4.67969C176.162 -49.9364 126.095 -57.2807 101.322 -55.2957C189.982 -73.1602 221.274 -187.791 85.6764 -175.881C-49.9214 -163.971 -179 -88.0473 -179 10.2074Z" fill="white"/>
<path d="M-142.94 66.2468C-152.076 46.8311 -164.616 -22.0916 -143.013 -54.4124C-157.689 -70.1276 -186.28 -88.9528 -176.834 -109.164C-169.652 -124.531 -112.535 -105.578 -87.2303 -70.3751C-47.717 -67.4357 20.06 -50.0208 18.0551 -1.0353C16.0503 47.9502 -44.4701 64.5557 -87.5631 71.5516C-102.626 110.752 -157.415 142.036 -174.516 128.994C-191.618 115.952 -155.149 82.4197 -142.94 66.2468Z" fill="black"/>
</g>
</svg>
