<svg width="180" height="180" viewBox="0 0 180 180" fill="none" xmlns="http://www.w3.org/2000/svg">
<mask id="mask0_250_81" style="mask-type:alpha" maskUnits="userSpaceOnUse" x="0" y="0" width="180" height="180">
<rect width="180" height="180" fill="#D9D9D9"/>
</mask>
<g mask="url(#mask0_250_81)">
<path d="M169.793 1C71.5379 1 52.1847 53.153 14.967 205.7C-1.05371 268.284 -8.85095 358.248 59.6296 358.248C92.3819 358.248 113.226 315.222 122.156 287.841C125.567 315.222 139.423 360.334 184.68 358.248C229.936 356.162 237.281 306.095 235.296 281.322C253.16 369.982 367.791 401.274 355.881 265.676C343.971 130.079 268.047 1 169.793 1Z" fill="white"/>
<path d="M113.753 37.0599C133.169 27.924 202.092 15.3839 234.412 36.9868C250.128 22.3108 268.953 -6.27967 289.164 3.16595C304.531 10.3477 285.578 67.4649 250.375 92.7697C247.436 132.283 230.021 200.06 181.035 198.055C132.05 196.05 115.444 135.53 108.448 92.4369C69.2481 77.374 37.9639 22.5852 51.0059 5.48392C64.0481 -11.6177 97.5803 24.8508 113.753 37.0599Z" fill="black"/>
<circle cx="152.904" cy="107.904" r="24.9037" fill="white"/>
<circle cx="154.246" cy="109.246" r="13.3413" fill="black"/>
<circle cx="179.447" cy="147.927" r="4.4471" fill="white"/>
<circle cx="179.226" cy="165.715" r="6.22594" fill="white"/>
</g>
</svg>
