<svg width="180" height="180" viewBox="0 0 180 180" fill="none" xmlns="http://www.w3.org/2000/svg">
<mask id="mask0_250_109" style="mask-type:alpha" maskUnits="userSpaceOnUse" x="0" y="0" width="180" height="180">
<rect x="180" y="180" width="180" height="180" transform="rotate(-180 180 180)" fill="#D9D9D9"/>
</mask>
<g mask="url(#mask0_250_109)">
<path d="M190.207 359C288.462 359 307.815 306.847 345.033 154.3C361.054 91.716 368.851 1.75208 300.37 1.75207C267.618 1.75207 246.774 44.7783 237.844 72.1586C234.434 44.7783 220.577 -0.334057 175.32 1.75206C130.064 3.83818 122.719 53.905 124.704 78.6777C106.84 -9.98238 -7.79068 -41.2742 4.11898 94.3236C16.0286 229.921 91.9527 359 190.207 359Z" fill="white"/>
<path d="M246.247 322.94C226.831 332.076 157.908 344.616 125.588 323.013C109.872 337.689 91.0472 366.28 70.836 356.834C55.469 349.652 74.4224 292.535 109.625 267.23C112.564 227.717 129.979 159.94 178.965 161.945C227.95 163.95 244.556 224.47 251.552 267.563C290.752 282.626 322.036 337.415 308.994 354.516C295.952 371.618 262.42 335.149 246.247 322.94Z" fill="black"/>
</g>
</svg>
