<svg width="853" height="395" viewBox="0 0 853 395" fill="none" xmlns="http://www.w3.org/2000/svg">
<rect width="853" height="395" fill="url(#paint0_linear_284_3909)"/>
<path d="M566.441 151.554C554.406 154.063 530.42 132.486 519.27 119.377C483.249 89.4497 463.523 130.997 505.548 146.192C547.573 161.387 586.167 193.564 581.879 274.9C563.01 398.247 500.402 376.795 450.658 367.856C400.914 358.918 389.765 283.838 389.765 247.192C389.765 210.546 402.629 203.724 420.64 203.724C454.914 203.724 480.676 237.36 496.971 231.998C513.267 226.635 485.388 207.233 463.523 193.564C440.123 178.934 401.772 101.501 450.658 53.2351C489.767 14.6226 546.429 21.058 569.872 29.1023C611.897 46.9784 587.882 147.085 566.441 151.554Z" fill="white"/>
<path d="M225.526 26.9211C195.67 32.7891 197.612 91.3667 197.565 131.199C197.517 171.031 201.531 265.786 210.76 326.379C222.298 402.121 335.344 364.666 364.371 354.831C393.399 344.995 383.512 251.331 373.441 228.789C363.37 206.246 335.263 226.504 299.986 229.619C264.708 232.734 265.248 193.094 308.803 201.368C352.358 209.642 351.696 183.844 352.213 153.094C352.729 122.344 330.75 125.901 297.855 137.694C271.539 147.129 265.461 124.664 265.712 112.253C268.517 98.2687 279.694 100.482 308.395 105.251C343.321 111.055 362.914 78.3848 349.518 45.6315C336.121 12.8782 273.442 17.5033 225.526 26.9211Z" fill="white"/>
<path fill-rule="evenodd" clip-rule="evenodd" d="M14.7711 122.187C14.7052 82.8452 14.6177 30.5586 42.738 25.0317C90.6541 15.614 126.481 19.2931 157.055 37.1108C186.06 54.014 190.077 86.495 186.06 125.163C183.584 149 161.264 181.5 132.264 181.5C109.657 181.5 116.59 188.136 126.615 197.732C129.45 200.445 132.532 203.396 135.264 206.5C135.822 207.134 136.386 207.771 136.956 208.416C147.624 220.473 160.666 235.215 186.06 286C212.811 339.5 209.264 365.189 158.764 369.5C127.209 372.193 116.542 309.935 108.589 263.511C103.814 235.64 100.017 213.477 93.2648 214.5C79.7442 216.548 81.3315 222.29 88.1224 246.853C89.6191 252.267 91.3686 258.595 93.2648 266C103.765 307 98.0309 354.986 85.2645 366C64.5999 383.829 18.1906 375.5 14.7779 323C11.9065 278.826 13.1574 218.205 14.0915 172.93C14.4508 155.517 14.7633 140.374 14.7764 129.309C14.7791 126.994 14.7751 124.615 14.7711 122.187ZM96.7887 139.916C111.181 143.806 119.088 135.006 123.264 119.558C127.44 104.11 126.303 87.8627 111.911 83.9723C97.5189 80.082 82.1089 85.186 77.933 100.634C73.7571 116.083 82.3967 136.025 96.7887 139.916Z" fill="white"/>
<path d="M780.077 123.627C763.08 122.03 754.686 117.594 750.049 129C745.577 140 744.48 169.042 745.577 193.001C746.674 216.959 758.601 309.402 749.077 342.146C739.553 374.89 704.531 381.646 671.577 369.646C635.236 356.413 667.031 227.873 667.031 193.001C667.031 158.128 679.362 123.627 659.077 123.627H624.758C593.977 123.627 599.259 80.2507 602.549 51.5002C605.838 22.7498 643.602 25.7502 680.335 28.1461C717.068 30.542 831.429 19.7571 839.653 62.8828C843.835 103.661 841.428 115.641 826.077 123.627C810.726 131.613 801.443 125.635 780.077 123.627Z" fill="white"/>
<defs>
<linearGradient id="paint0_linear_284_3909" x1="426.5" y1="0" x2="426.5" y2="395" gradientUnits="userSpaceOnUse">
<stop stop-color="#53D3B4"/>
<stop offset="1" stop-color="#2AA185"/>
</linearGradient>
</defs>
</svg>
