<svg width="168" height="232" viewBox="0 0 168 232" fill="none" xmlns="http://www.w3.org/2000/svg">
<rect x="85.2412" y="178.509" width="17.3294" height="53.491" fill="black"/>
<rect x="59.625" y="178.509" width="17.3294" height="53.491" fill="black"/>
<rect x="128.188" y="178.509" width="16.9527" height="53.491" fill="black"/>
<rect x="17.0547" y="178.509" width="17.3294" height="53.491" fill="black"/>
<path d="M78.9608 76.2881C32.1658 76.2881 22.9486 95.1151 5.22316 150.184C-2.40689 172.777 -6.12043 205.253 26.4943 205.253C42.093 205.253 52.0202 189.721 56.2733 179.837C57.8976 189.721 64.4969 206.006 86.051 205.253C107.605 204.5 111.103 186.426 110.157 177.483C118.666 209.489 173.26 220.785 167.588 171.835C161.916 122.885 125.756 76.2881 78.9608 76.2881Z" fill="white"/>
<path d="M52.2488 54.0547C61.6117 49.9595 94.5886 44.891 109.694 55.5975C117.367 48.8165 126.703 35.4522 136.202 40.213C143.424 43.8328 133.654 70.7755 116.564 82.3615C114.648 101.133 105.471 133.171 82.1755 131.576C58.8806 129.981 51.7663 100.953 48.9991 80.3475C30.5335 72.6643 16.356 46.1732 22.7887 38.2027C29.2215 30.2321 44.7087 48.0312 52.2488 54.0547Z" fill="black"/>
<ellipse cx="11.8607" cy="11.8598" rx="11.8607" ry="11.8598" transform="matrix(0.998601 0.052875 -0.0528829 0.998601 58.7217 75.5361)" fill="white"/>
<ellipse cx="11.8607" cy="11.8598" rx="11.8607" ry="11.8598" transform="matrix(0.998601 0.052875 -0.0528829 0.998601 84.9482 76.9248)" fill="white"/>
<circle cx="6.35396" cy="6.35396" r="6.35396" transform="matrix(0.998601 0.052875 -0.0528829 0.998601 93.8936 87.2095)" fill="black"/>
<circle cx="6.35396" cy="6.35396" r="6.35396" transform="matrix(0.998601 0.052875 -0.0528829 0.998601 67.668 85.8208)" fill="black"/>
<circle cx="2.11799" cy="2.11799" r="2.11799" transform="matrix(0.998601 0.052875 -0.0528829 0.998601 79.1953 105.463)" fill="white"/>
<circle cx="2.96518" cy="2.96518" r="2.96518" transform="matrix(0.998601 0.052875 -0.0528829 0.998601 77.9453 113.032)" fill="white"/>
</svg>
