<svg width="1008" height="395" viewBox="0 0 1008 395" fill="none" xmlns="http://www.w3.org/2000/svg">
<rect width="1008" height="395" fill="url(#paint0_linear_238_65)"/>
<path d="M180.787 151.3C169.153 153.809 145.967 132.232 135.189 119.123C100.368 89.1958 81.2995 130.743 121.924 145.938C162.548 161.133 199.856 193.31 195.71 274.646C177.471 397.993 116.949 376.541 68.8635 367.603C20.7778 358.664 10 283.585 10 246.938C10 210.292 22.436 203.47 39.8463 203.47C72.9778 203.47 97.8808 237.107 113.633 231.744C129.385 226.381 102.436 206.979 81.2995 193.31C58.6793 178.681 21.6069 101.247 68.8635 52.9812C106.669 14.3687 161.442 20.8041 184.103 28.8484C224.728 46.7245 201.514 146.831 180.787 151.3Z" fill="white"/>
<path d="M573.903 99.8854C544.211 93.272 537.178 97.681 534.053 113.847C534.053 140.3 548.899 135.892 578.591 124.87C608.283 113.847 623.129 141.771 623.91 169.694C624.692 197.617 537.96 184.39 534.053 196.882C530.145 209.374 543.43 223.336 592.656 209.374C641.882 195.413 651.258 238.032 652.821 301.227C654.384 364.421 509.83 340.172 481.701 335.763C453.572 331.354 462.167 279.917 464.511 230.684C466.855 181.451 458.26 38.8957 500.454 27.873C553.587 13.1766 591.874 34.4864 599.688 55.0614C607.501 75.6364 603.594 106.499 573.903 99.8854Z" fill="white"/>
<path d="M676.005 26.375C647.147 30.9326 649.024 76.4287 648.978 107.365C648.933 138.302 652.812 211.897 661.733 258.959C672.885 317.786 782.153 288.695 810.21 281.056C838.268 273.417 828.711 200.67 818.977 183.162C809.242 165.653 782.074 181.387 747.976 183.807C713.878 186.226 714.4 155.439 756.499 161.865C798.598 168.291 797.958 148.254 798.458 124.371C798.957 100.489 777.712 103.251 745.917 112.411C720.48 119.738 714.606 102.29 714.848 92.6504C717.56 81.7894 728.363 83.5082 756.105 87.2126C789.863 91.7203 808.802 66.3459 795.853 40.907C782.904 15.4681 722.32 19.0604 676.005 26.375Z" fill="white"/>
<path fill-rule="evenodd" clip-rule="evenodd" d="M829.153 83.3464C829.089 58.5731 829.004 25.6487 856.187 22.1684C902.506 16.2381 937.139 18.5549 966.694 29.7745C994.732 40.4184 998.615 60.8714 994.732 85.2206C991.112 107.919 979.921 132.017 936.689 132.017C904.9 132.017 906.395 135.681 910.786 146.441C912.367 150.314 914.323 155.108 915.236 160.98C916.303 167.838 918.403 174.97 920.497 182.082C925.139 197.845 929.752 213.509 923.017 225.854C913.096 244.039 853.067 258.429 841.914 210.735C832.992 172.58 829.112 112.913 829.158 87.8313C829.161 86.3732 829.157 84.8753 829.153 83.3464ZM908.438 94.5098C922.35 96.9595 929.994 91.4185 934.031 81.6908C938.067 71.9631 936.968 61.7325 923.056 59.2828C909.144 56.833 894.247 60.047 890.211 69.7747C886.174 79.5024 894.525 92.0601 908.438 94.5098Z" fill="white"/>
<path d="M305.759 119.25C304.217 144.612 298.962 151.702 302.676 169.153C308.842 178.152 324.259 174.88 347.384 173.244C370.509 171.608 358.176 145.43 358.176 138.067C358.176 130.705 346.613 48.8985 362.801 36.6276C378.989 24.3567 402.114 20.7801 433.718 34.9914C465.323 49.2027 448.364 246.051 452.989 303.315C457.614 360.58 435.26 367.638 422.156 370.396C409.051 373.154 361.259 390.03 361.259 333.584C361.259 288.427 361.259 285.318 358.176 268.957C355.093 252.596 302.676 250.959 302.676 281.228V333.584C302.676 379.512 253.295 372.547 225.544 367.638C197.794 362.73 206.273 305.466 208.586 250.656C210.898 195.846 202.419 37.1418 244.045 24.8705C283.405 18.6302 298.051 25.9911 305.759 48.8968C313.467 71.8025 307.697 87.3696 305.759 119.25Z" fill="white"/>
<defs>
<linearGradient id="paint0_linear_238_65" x1="504" y1="0" x2="504" y2="395" gradientUnits="userSpaceOnUse">
<stop stop-color="#F7ADF8"/>
<stop offset="1" stop-color="#F25CC0"/>
</linearGradient>
</defs>
</svg>
