<svg width="395" height="395" viewBox="0 0 395 395" fill="none" xmlns="http://www.w3.org/2000/svg">
<path d="M120.529 115.254C146.333 103.967 237.216 89.9974 278.845 119.506C299.993 100.817 325.723 63.9828 351.901 77.1044C371.805 87.081 344.878 161.339 297.778 193.272C292.498 245.01 267.206 333.31 203.006 328.915C138.806 324.519 119.2 244.514 111.574 187.721C60.6833 166.545 21.6108 93.5316 39.339 71.5636C57.0674 49.5952 99.7496 98.6525 120.529 115.254Z" fill="black"/>
<circle cx="167.873" cy="210.71" r="32.6876" fill="white"/>
<circle cx="240.254" cy="210.709" r="32.6876" fill="white"/>
<circle cx="224.89" cy="210.511" r="17.5112" fill="black"/>
<circle cx="152.511" cy="210.511" r="17.5112" fill="black"/>
<circle cx="201.73" cy="263.241" r="5.83707" fill="white"/>
<circle cx="201.729" cy="286.59" r="8.1719" fill="white"/>
</svg>
