<svg width="154" height="140" viewBox="0 0 154 140" fill="none" xmlns="http://www.w3.org/2000/svg">
<rect x="84.0127" y="96.9902" width="13.6633" height="42.1993" fill="black"/>
<rect x="33.0146" y="96.9902" width="13.6633" height="42.1993" fill="black"/>
<rect x="101.947" y="97.3555" width="13.3663" height="42.1993" fill="black"/>
<rect x="14.3252" y="97.3555" width="13.6633" height="42.1993" fill="black"/>
<path d="M62.213 15.8491C25.3433 15.8491 18.0811 30.7807 4.11531 74.4554C-1.89638 92.3733 -4.82226 118.13 20.8748 118.13C33.1649 118.13 40.9865 105.812 44.3375 97.9726C45.6173 105.812 50.8169 118.727 67.7993 118.13C84.7817 117.533 87.5376 103.199 86.7927 96.1062C93.4963 121.49 136.511 130.449 132.042 91.6267C127.573 52.8047 99.0826 15.8491 62.213 15.8491Z" fill="white"/>
<path d="M85.9114 14.6539C93.2936 11.4231 119.294 7.42453 131.204 15.871C137.254 10.5214 144.615 -0.0217225 152.104 3.7341C157.798 6.58974 150.095 27.845 136.62 36.9852C135.11 51.7943 127.874 77.0688 109.507 75.8106C91.1402 74.5524 85.531 51.6523 83.3492 35.3963C68.7901 29.3351 57.6119 8.43612 62.6837 2.14815C67.7556 -4.13992 79.9665 9.90188 85.9114 14.6539Z" fill="black"/>
<ellipse cx="9.35157" cy="9.35626" rx="9.35157" ry="9.35626" transform="matrix(0.998599 0.0529055 -0.0528524 0.998602 91.0156 32.2061)" fill="white"/>
<ellipse cx="9.35157" cy="9.35626" rx="9.35157" ry="9.35626" transform="matrix(0.998599 0.0529055 -0.0528524 0.998602 111.693 32.2061)" fill="white"/>
<ellipse cx="5.00977" cy="5.01228" rx="5.00977" ry="5.01228" transform="matrix(0.998599 0.0529055 -0.0528524 0.998602 120.406 37.3662)" fill="black"/>
<ellipse cx="5.00977" cy="5.01228" rx="5.00977" ry="5.01228" transform="matrix(0.998599 0.0529055 -0.0528524 0.998602 99.7285 37.3662)" fill="black"/>
<ellipse cx="1.66992" cy="1.67076" rx="1.66992" ry="1.67076" transform="matrix(0.998599 0.0529055 -0.0528524 0.998602 107.158 55.2095)" fill="white"/>
<ellipse cx="2.33789" cy="2.33906" rx="2.33789" ry="2.33906" transform="matrix(0.998599 0.0529055 -0.0528524 0.998602 106.173 61.1802)" fill="white"/>
</svg>
